<svg xmlns="http://www.w3.org/2000/svg" xmlns:xlink="http://www.w3.org/1999/xlink" width="128" height="96" viewBox="0 0 96 72" version="1.2">
  <defs>
    <symbol overflow="visible" id="a">
      <path d="M4.98-11.13c-.46 0-.6.1-.73.44C3.42-8.45 1.47-2.97.56-.7c-.1.23-.22.3-.34.34l-.5.16c-.08.01-.11.12-.11.18 0 .04.02.05.03.05C-.09.02.41 0 .97 0c.73 0 1.5.02 1.86.03.04 0 .04 0 .04-.03 0-.1-.03-.19-.1-.2L1.73-.37c-.1-.02-.2-.1-.17-.3.2-.83.61-2.3.8-2.96.03-.09.1-.17.17-.17 1.13-.06 3.44-.1 4.24-.1.3.77.92 2.4 1.2 3.23.06.17-.02.26-.16.28l-.97.19c-.07.01-.1.1-.1.2 0 .02.01.03.04.03C7.22.02 7.97 0 8.8 0c.65 0 1.34.03 1.62.03.05 0 .05-.01.05-.03 0-.1-.03-.19-.08-.2L9.7-.36c-.15-.03-.3-.19-.36-.37-.75-2.32-2.6-8.04-3.3-10.29 0-.04-.04-.07-.09-.07-.26-.02-.6-.04-.95-.04zm-.4.93l.23.72c.52 1.46 1.53 4.3 1.85 5.25-.82.04-3.08-.04-3.96-.11-.08 0-.1-.04-.08-.18.36-1.17 1.1-3.43 1.66-5 .03-.15.14-.45.22-.68zm0 0"/>
    </symbol>
    <symbol overflow="visible" id="b">
      <path d="M.83-5.06c0 1.28 1.1 2.17 2.34 2.34l-1.97.78c-.1.05-.14.1-.14.25 0 .38.13.58.35.67.28.16.84.33 1.4.46C.78.5.03.9.03 1.74c0 1.12 1.6 1.71 3.78 1.71 2.9 0 4.83-1.15 4.83-2.64C8.64-.5 7.2-.84 4.86-1.1c-1.22-.17-2.56-.34-2.56-.67 0-.25.67-.55 1.39-.74.33-.12.65-.18.89-.21C6.42-3 7.8-4.05 7.8-5.83c0-.7-.31-1.48-.86-1.9l1.67-.22c.07 0 .13-.13.13-.22 0-.02-.02-.03-.06-.03l-2.22.01c-.16 0-.3 0-.44-.03a7.8 7.8 0 0 0-1.33-.1C2.44-8.33.83-6.9.83-5.09zM4.27-3c-1.04 0-1.9-.9-1.9-2.31 0-1.49.7-2.72 2.1-2.72 1.19 0 1.81 1.05 1.81 2.44 0 1.8-.94 2.59-2 2.59zm-.04 6.13c-1.51 0-2.62-.6-2.62-1.6C1.6.67 2.36.08 2.98-.3c.2-.1.33-.1.57-.07 2.1.33 3.6.58 3.6 1.75 0 1.04-1.35 1.75-2.9 1.75zm0 0"/>
    </symbol>
    <symbol overflow="visible" id="c">
      <path d="M8.69-8.28c0-1.75-1.38-2.88-4.3-2.88-1.51 0-3.1.14-3.8.22-.04 0-.04.02-.04.03 0 .11.04.2.1.22l.82.06c.16 0 .2.13.2.35.02.4.06 3.94.06 4.64 0 .78.04 4.34.02 5.01 0 .16-.1.22-.2.26L.72-.2c-.08.01-.1.1-.1.18 0 .04 0 .05.05.05a53.7 53.7 0 0 1 3.64 0c.05 0 .07-.01.07-.05 0-.07-.07-.17-.11-.18L3.23-.4c-.12 0-.18-.07-.18-.24 0-.55.08-3.55.1-4.13.4.02 1.1.02 1.43-.01.1 0 .17.01.23.08 1 1.14 2.27 2.95 3.03 4.12.1.14 0 .2-.17.24l-.81.14c-.08.01-.11.12-.11.2 0 .02.02.03.05.03L8.66 0c.68 0 1.17.02 1.51.03.03 0 .03-.01.03-.05 0-.07-.03-.17-.1-.18l-.74-.2c-.13-.04-.2-.08-.27-.2a46.12 46.12 0 0 0-2.75-4.68c.97-.4 2.35-1.38 2.35-2.99zm-4.75 3.2c-.64 0-.81-.04-.81-.28 0-.31.09-3.84.18-5.16.02-.28.25-.34.85-.34 1.78 0 2.87 1.08 2.87 2.67 0 2.06-1.47 3.11-3.08 3.11zm0 0"/>
    </symbol>
    <symbol overflow="visible" id="d">
      <path d="M5.88-4.48a3.09 3.09 0 0 0-2.2-.9C1.44-5.38.54-3.63.54-2.17.55-.63 1.53.15 2.63.15 4.13.14 5.2-.98 5.71-1.88c.1-.15.19-.34.25-.5l.06.02-.01.58a39 39 0 0 0 .03 1.7c0 .06.01.1.1.1.2-.02.57-.02 1-.02.5 0 1 0 1.18.02.06 0 .08-.02.08-.04a.18.18 0 0 0-.11-.17l-.9-.18c-.13-.04-.18-.11-.18-.26l.05-2.06c.04-.54.07-1.62.07-2.08 0-1.8-.37-3.56-2.34-3.56a4.7 4.7 0 0 0-3.72 1.85c-.06.09.05.3.11.3.02 0 .03-.02.05-.05.78-.83 1.73-1.44 2.7-1.44.99 0 1.44.72 1.64 1.86.06.33.14.95.16 1.33zM3.4-.5c-.85 0-1.35-.73-1.35-1.95C2.06-3.83 2.7-5 3.87-5c1.02 0 1.66.7 1.94 1.17.08.16.13.31.13.42 0 .13-.03.32-.1.44C5.41-1.62 4.41-.5 3.42-.5zm0 0"/>
    </symbol>
    <symbol overflow="visible" id="e">
      <path d="M3.2-8.03c.03-2.4.85-3.85 1.99-3.85.25 0 .42.07.54.16.11.06.2.2.29.36l.59 1.33c.01.05.03.06.05.06.06 0 .2-.1.2-.17l-.13-1.73c0-.08-.01-.11-.09-.13a2.56 2.56 0 0 0-1.23-.22c-2.47 0-3.66 2.13-3.74 4.2H.57c-.18 0-.24.08-.3.22-.04.1-.07.24-.07.3 0 .03.02.05.05.05l1.4-.03c0 .37.05 2.57.08 3.3.04.85.13 2.91.13 3.6 0 .14-.1.22-.2.24L.75-.2C.7-.19.67-.05.67 0c0 .02 0 .03.03.03a107.8 107.8 0 0 1 4.28 0c.04 0 .04-.01.04-.03 0-.08-.04-.19-.08-.19L3.3-.36c-.1-.02-.2-.04-.2-.2l.02-3.46c.02-.28.06-2.3.1-3.48l3.13-.2c.07 0 .1-.14.1-.24 0-.01 0-.03-.03-.03zm0 0"/>
    </symbol>
    <symbol overflow="visible" id="f">
      <path d="M5.7-8.19c-.04 0-.04.02-.04.05 0 .1.03.19.1.2l.66.13c.11.03.13.12-.03.26a43.93 43.93 0 0 1-3.12 2.7c-.11.12-.27.26-.43.44l-.07-.01c0-.22.03-.44.03-.64.03-1.24.2-6.64.2-7.03 0-.1-.02-.14-.14-.13l-2.75.28c-.03 0-.03.02-.03.06 0 .07.04.18.1.18l1.04.06c.16 0 .2.12.2.28.02.48.05 4.97.05 5.53 0 1.02.05 4.33.03 5.24 0 .15-.06.2-.2.23l-.8.17C.44-.16.4-.05.4 0 .4.02.4.03.44.03a35.71 35.71 0 0 1 3.5 0C4 .03 4 .02 4 0c0-.08-.02-.16-.1-.19l-1-.17c-.1-.03-.17-.08-.18-.22 0-.22.03-1.95.08-2.58v-.59l.04-.02.36.3c1.1.81 2.77 2.08 3.77 2.95.1.08.06.18-.1.2l-.68.13a.2.2 0 0 0-.11.17c0 .04.03.05.04.05a65.38 65.38 0 0 1 3.13-.05c0-.06-.03-.14-.1-.17l-.59-.17a.88.88 0 0 1-.4-.25 69.84 69.84 0 0 0-3.9-3.87c-.13-.13-.28-.25-.38-.33v-.07l.21-.17c.97-.68 2.41-1.8 3.4-2.48.21-.16.37-.25.59-.3l.42-.12c.05-.02.1-.1.1-.17 0-.04 0-.07-.08-.07zm0 0"/>
    </symbol>
    <symbol overflow="visible" id="g">
      <path d="M4.13-2.7H1.25V0H.72v-5.94h3.4v.55H1.25v2.14h2.88zm0 0"/>
    </symbol>
    <symbol overflow="visible" id="h">
      <path d="M1.23 0H.7v-5.94h.53zm0 0"/>
    </symbol>
    <symbol overflow="visible" id="i">
      <path d="M3.44 0H.72v-5.94h.53v5.4h2.19zm0 0"/>
    </symbol>
    <symbol overflow="visible" id="j">
      <path d="M5.84 0H5.3v-3.9c0-.6.02-1.14.06-1.58-.06.36-.13.65-.2.87L3.59 0h-.65L1.4-4.6a5.58 5.58 0 0 1-.22-.88c.03.37.04.9.04 1.57V0h-.5v-5.94h.8L3.05-1.3c.06.17.13.47.22.9.03-.2.1-.5.23-.88l1.56-4.66h.78zm0 0"/>
    </symbol>
  </defs>
  <use xlink:href="#a" x="386.88" y="235.11" width="100%" height="100%" fill="#211e1e" transform="translate(-379.12 -191.69) scale(.98393)"/>
  <g fill="#211e1e" transform="translate(-379.12 -191.69) scale(.98393)">
    <use xlink:href="#b" x="402.61" y="235.11" width="100%" height="100%"/>
    <use xlink:href="#c" x="416.74" y="235.11" width="100%" height="100%"/>
  </g>
  <g fill="#211e1e" transform="translate(-379.12 -191.69) scale(.98393)">
    <use xlink:href="#d" x="432.42" y="235.11" width="100%" height="100%"/>
    <use xlink:href="#e" x="446.42" y="235.11" width="100%" height="100%"/>
  </g>
  <use xlink:href="#f" x="458.93" y="235.11" width="100%" height="100%" fill="#211e1e" transform="translate(-379.12 -191.69) scale(.98393)"/>
  <use xlink:href="#d" x="473.3" y="235.11" width="100%" height="100%" fill="#211e1e" transform="translate(-379.12 -191.69) scale(.98393)"/>
  <g fill="#211e1e" transform="translate(-379.12 -191.69) scale(.98393)">
    <use xlink:href="#g" x="386.64" y="247.5" width="100%" height="100%"/>
    <use xlink:href="#h" x="417.49" y="247.5" width="100%" height="100%"/>
    <use xlink:href="#i" x="445.84" y="247.5" width="100%" height="100%"/>
    <use xlink:href="#j" x="475.76" y="247.5" width="100%" height="100%"/>
  </g>
  <path d="M64.95 66.92c-.83 1.92-3.84 3.37-5.93 2.56-3.13-1.19-3.99-6.85-.73-8.75 1.76-1.04 5.69.16 6.78 2.3.36.7.32 2.86-.12 3.89m.48-10.98c-.54.05-1.16.1-1.85.18l.52 2c.8 3.17.7 2.84.35 2.32-.55-.83-2.72-1.34-3.62-1.44-1.8-.2-5.14 1.09-5.7 3.05-.15.56-.43 1.88-.33 1.28-3.6-5.71-7.65-12.5-11.6-19.39-.6.05-1.22.08-1.81.1 6.68 11.6 13.75 23.9 14.07 24.19.78.7 1.19 1.56 1.9 2.06 2.87 2.05 8.22.78 9.33-3.54.73-2.86-.24-7.1-1.26-10.8m-8.55-30.19a1392.9 1392.9 0 0 1-3.1-10.79c-.36-1.24-.64-2.5-1.04-3.68-.5-1.5-1.56-3.5-2.51-4.63-.03.67 2.22 9 4.8 18.32a5.4 5.4 0 0 1 1.85.78M36.64 3.08C34.08-.05 29.42.11 25.1 2.75c-2.04 1.25-2.75 6.28-2.3 8.57.06.3 1.4 3.69 2.46 5.84.64 1.3 1.8 4.68 3.12 6.05.33.34.75.18 1.1.54.13.12.7 1.03 1.57 2.51.75-.04 1.5-.08 2.25-.14l-1.76-3.3c-.25-.48-.6-.8-.65-1.17-.16-1.08 1.8-3.58 2.2-4.78.43-1.33.86-2.88.93-3.61a2.9 2.9 0 0 0-.33-1.81c-1.03-1.5-3.37.2-4.82 0-1.24-.18-2.5-1.95-2.18-3.15.62-2.23 3.76-2.95 5.2-2.5 2.47.78 3.02 6.18 5.41 8.37 1.79 1.64 3.68 1.23 6.34.06-2.69-3.3-4.49-8.06-7-11.15" fill="#211e1e" fill-rule="evenodd"/>
  <path d="M25.27 12.9c.12-.63 2.43.32 3.48.22 1.05-.1 3.21-1.1 3.56 0 .35 1.1-.43 2-.92 3.48-.8 2.41-1.97 3.82-2.92 2.92-.95-.9-3.4-5.51-3.2-6.61M29.85 1.9c1.99-.67 3.55.04 5.35 1.09 1.8 1.05 2.13 3.03 1.14 3.26-1.29.3-2.13-1.48-4.09-2.63-1.32-.77-2.2.06-2.9-.23-1.22-.49-.49-1.16.5-1.49" fill="#fff" fill-rule="evenodd"/>
</svg>
